<svg width="169" height="60" viewBox="0 0 169 60" fill="none" xmlns="http://www.w3.org/2000/svg">
<g clip-path="url(#clip0_1908_10207)">
<path d="M0 9.33655L7.69316 37.3939H16.4342L42.5147 59.3777H54.6141V29.4864L82.5759 24.5562L88.1259 12.7425L52.6135 0L45.6587 12.7425V48.1596L18.6493 0L0 9.33655Z" fill="url(#paint0_linear_1908_10207)"/>
<path d="M59.9658 59.3774H75.614V55.3046H64.372V48.6118H74.4471V44.7295H64.372V38.2511H75.614V34.1782H59.9658V59.3774Z" fill="#FAFAFA"/>
<path d="M97.9077 46.3253C98.6699 45.1344 99.0507 43.7053 99.0507 42.0381C99.0507 39.561 98.2414 37.6318 96.6452 36.2504C95.0497 34.869 92.8346 34.1782 89.976 34.1782H80.354V59.3774H84.7603V49.9694H90.1671L94.4301 59.3774H99.265L94.4779 49.0405C95.9785 48.4212 97.0977 47.5162 97.8838 46.3253H97.9077ZM93.2632 44.9915C92.4771 45.706 91.3818 46.0633 89.9999 46.0633H84.7842V38.1082H89.9999C91.4056 38.1082 92.5009 38.4416 93.2632 39.1323C94.0493 39.7992 94.4301 40.7758 94.4301 42.0381C94.4301 43.3004 94.0493 44.3008 93.2632 44.9915Z" fill="#FAFAFA"/>
<path d="M114.151 48.6832C113.913 49.3263 113.675 50.0409 113.39 50.8507C113.104 51.6604 112.818 52.6132 112.532 53.7088C112.246 52.6846 111.984 51.7796 111.746 50.9936C111.484 50.1838 111.222 49.4216 110.96 48.6832L105.434 34.1782H100.742L110.245 59.3774H114.795L124.179 34.1782H119.606L114.151 48.6832Z" fill="#FAFAFA"/>
<path d="M142.376 49.6359C142.376 51.3985 141.899 52.7561 140.946 53.7326C139.993 54.6853 138.636 55.1617 136.873 55.1617C135.111 55.1617 133.777 54.6853 132.849 53.7326C131.896 52.7799 131.42 51.4223 131.42 49.6359V34.1782H127.084V49.9218C127.084 51.851 127.49 53.5182 128.299 54.9473C129.109 56.3764 130.228 57.472 131.705 58.2342C133.182 58.9964 134.896 59.3774 136.897 59.3774C138.898 59.3774 140.661 58.9964 142.114 58.2104C143.59 57.4244 144.71 56.3288 145.52 54.9235C146.329 53.5182 146.734 51.851 146.734 49.9218V34.1782H142.399V49.6359H142.376Z" fill="#FAFAFA"/>
<path d="M166.622 47.5874C165.598 46.5156 164.05 45.7534 161.954 45.3009L158.119 44.4435C157.095 44.2052 156.356 43.8242 155.88 43.324C155.404 42.8238 155.165 42.1331 155.165 41.2756C155.165 40.2515 155.571 39.4417 156.356 38.8701C157.142 38.2746 158.191 37.9888 159.501 37.9888C160.692 37.9888 161.644 38.2746 162.359 38.8701C163.073 39.4655 163.454 40.2753 163.478 41.3233H167.742C167.694 39.8704 167.336 38.5843 166.67 37.5363C166.003 36.4645 165.05 35.6547 163.835 35.083C162.621 34.5114 161.192 34.2256 159.548 34.2256C157.905 34.2256 156.333 34.5353 155.047 35.1307C153.76 35.75 152.736 36.5836 151.998 37.6792C151.259 38.7748 150.902 40.0133 150.902 41.4424C150.902 43.324 151.426 44.8483 152.498 46.0154C153.57 47.1825 155.118 47.9923 157.19 48.421L161.049 49.2784C162.049 49.469 162.763 49.8263 163.216 50.3264C163.668 50.8266 163.883 51.4935 163.883 52.3509C163.883 53.3274 163.478 54.1134 162.645 54.6851C161.811 55.2805 160.692 55.5664 159.263 55.5664C157.833 55.5664 156.833 55.2805 156.047 54.6851C155.261 54.0896 154.856 53.3036 154.832 52.2795H150.569C150.616 53.7324 150.997 54.9709 151.712 56.0427C152.427 57.1145 153.427 57.9243 154.713 58.5198C155.999 59.1152 157.5 59.401 159.215 59.401C161.025 59.401 162.573 59.0914 163.93 58.496C165.264 57.8767 166.313 57.0192 167.051 55.876C167.789 54.7327 168.146 53.4465 168.146 51.946C168.146 50.1359 167.646 48.683 166.622 47.6112V47.5874Z" fill="#FAFAFA"/>
</g>
<defs>
<linearGradient id="paint0_linear_1908_10207" x1="-5.85917" y1="-18.8161" x2="87.3398" y2="57.2579" gradientUnits="userSpaceOnUse">
<stop offset="0.0154692" stop-color="#271138"/>
<stop offset="1" stop-color="#C3A3E9"/>
</linearGradient>
<clipPath id="clip0_1908_10207">
<rect width="168.367" height="60" fill="white"/>
</clipPath>
</defs>
</svg>
